<?xml version="1.0" ?><svg xmlns="http://www.w3.org/2000/svg" width="24" height="24" viewBox="0 0 24 24" fill="none"><g id="letter-m"><g id="outline" filter="url(#filter0_d_1701_1252)"><path d="M9.65994 3C10.0623 3 10.4254 3.24113 10.5816 3.61194L11.0784 4.79182C11.4219 5.60775 12.5781 5.60775 12.9216 4.79183L13.4184 3.61194C13.5746 3.24113 13.9377 3 14.3401 3L20 3C20.5523 3 21 3.44772 21 4.00001V20C21 20.5523 20.5523 21 20 21H15C14.4477 21 14 20.5523 14 20V19C14 18.4477 13.5523 18 13 18H11C10.4477 18 10 18.4477 10 19V20C10 20.5523 9.55228 21 9 21H4C3.44772 21 3 20.5523 3 20V4C3 3.44772 3.44772 3 4 3H9.65994Z" fill="white"/></g><path id="icon" d="M10.3725 16L8 10.3654L8 19H5V5H8.99596L12 12.1346L15.004 5L19 5V19H16V10.3654L13.6275 16H10.3725Z" fill="#1452CC"/></g><defs><filter id="filter0_d_1701_1252" x="1" y="1.5" width="22" height="22" filterUnits="userSpaceOnUse" color-interpolation-filters="sRGB"><feFlood flood-opacity="0" result="BackgroundImageFix"/><feColorMatrix in="SourceAlpha" type="matrix" values="0 0 0 0 0 0 0 0 0 0 0 0 0 0 0 0 0 0 127 0" result="hardAlpha"/><feOffset dy="0.5"/><feGaussianBlur stdDeviation="1"/><feComposite in2="hardAlpha" operator="out"/><feColorMatrix type="matrix" values="0 0 0 0 0 0 0 0 0 0 0 0 0 0 0 0 0 0 0.25 0"/><feBlend mode="normal" in2="BackgroundImageFix" result="effect1_dropShadow_1701_1252"/><feBlend mode="normal" in="SourceGraphic" in2="effect1_dropShadow_1701_1252" result="shape"/></filter></defs></svg>